<svg id="Layer_1" data-name="Layer 1" xmlns="http://www.w3.org/2000/svg" viewBox="0 0 840.54 984">
  <defs>
    <style>
      .cls-1, .cls-2, .cls-3, .cls-4, .cls-5 {
        fill: none;
        stroke-miterlimit: 10;
        stroke-width: 5px;
      }

      .cls-1, .cls-2 {
        stroke: #c5c6c7;
      }

      .cls-2 {
        opacity: 0.85;
      }

      .cls-3 {
        stroke: #67c4ca;
        opacity: 0.4;
      }

      .cls-4 {
        stroke: #3a0342;
        opacity: 0.22;
      }

      .cls-5 {
        stroke: #a52f2f;
        opacity: 0.56;
      }
    </style>
  </defs>
  <title>bg-hex</title>
  <polygon class="cls-1" points="102.48 60.5 36.08 60.5 2.89 118 36.08 175.5 102.48 175.5 135.68 118 102.48 60.5"/>
  <polygon class="cls-1" points="203.39 233.5 136.99 233.5 103.79 291 136.99 348.5 203.39 348.5 236.58 291 203.39 233.5"/>
  <polygon class="cls-1" points="202.39 118.5 135.99 118.5 102.79 176 135.99 233.5 202.39 233.5 235.58 176 202.39 118.5"/>
  <polygon class="cls-1" points="201.82 2.5 135.43 2.5 102.23 60 135.43 117.5 201.82 117.5 235.02 60 201.82 2.5"/>
  <polygon class="cls-1" points="302.57 60.5 236.18 60.5 202.98 118 236.18 175.5 302.57 175.5 335.77 118 302.57 60.5"/>
  <polygon class="cls-1" points="302.57 520.5 236.18 520.5 202.98 578 236.18 635.5 302.57 635.5 335.77 578 302.57 520.5"/>
  <polygon class="cls-2" points="302.57 291.5 236.18 291.5 202.98 349 236.18 406.5 302.57 406.5 335.77 349 302.57 291.5"/>
  <polygon class="cls-1" points="302.57 405.5 236.18 405.5 202.98 463 236.18 520.5 302.57 520.5 335.77 463 302.57 405.5"/>
  <polygon class="cls-1" points="402.48 233.5 336.08 233.5 302.89 291 336.08 348.5 402.48 348.5 435.68 291 402.48 233.5"/>
  <polygon class="cls-1" points="402.48 118.5 336.08 118.5 302.89 176 336.08 233.5 402.48 233.5 435.68 176 402.48 118.5"/>
  <polygon class="cls-1" points="403.48 577.5 337.08 577.5 303.89 635 337.08 692.5 403.48 692.5 436.68 635 403.48 577.5"/>
  <polygon class="cls-1" points="403.48 463.5 337.08 463.5 303.89 521 337.08 578.5 403.48 578.5 436.68 521 403.48 463.5"/>
  <polygon class="cls-1" points="401.92 2.5 335.52 2.5 302.32 60 335.52 117.5 401.92 117.5 435.12 60 401.92 2.5"/>
  <polygon class="cls-1" points="503.45 176.5 437.06 176.5 403.86 234 437.06 291.5 503.45 291.5 536.65 234 503.45 176.5"/>
  <polygon class="cls-1" points="503.45 61.5 437.06 61.5 403.86 119 437.06 176.5 503.45 176.5 536.65 119 503.45 61.5"/>
  <polygon class="cls-2" points="502.45 291.5 436.06 291.5 402.86 349 436.06 406.5 502.45 406.5 535.65 349 502.45 291.5"/>
  <polygon class="cls-1" points="502.45 405.5 436.06 405.5 402.86 463 436.06 520.5 502.45 520.5 535.65 463 502.45 405.5"/>
  <polygon class="cls-1" points="502.95 635.5 436.56 635.5 403.36 693 436.56 750.5 502.95 750.5 536.15 693 502.95 635.5"/>
  <polygon class="cls-1" points="502.95 751.5 436.56 751.5 403.36 809 436.56 866.5 502.95 866.5 536.15 809 502.95 751.5"/>
  <polygon class="cls-1" points="502.95 866.5 436.56 866.5 403.36 924 436.56 981.5 502.95 981.5 536.15 924 502.95 866.5"/>
  <polygon class="cls-1" points="604.36 234.5 537.96 234.5 504.76 292 537.96 349.5 604.36 349.5 637.56 292 604.36 234.5"/>
  <polygon class="cls-1" points="604.36 119.5 537.96 119.5 504.76 177 537.96 234.5 604.36 234.5 637.56 177 604.36 119.5"/>
  <polygon class="cls-1" points="603.36 577.5 536.96 577.5 503.76 635 536.96 692.5 603.36 692.5 636.56 635 603.36 577.5"/>
  <polygon class="cls-2" points="604.36 349.5 537.96 349.5 504.76 407 537.96 464.5 604.36 464.5 637.56 407 604.36 349.5"/>
  <polygon class="cls-1" points="604.36 465.5 537.96 465.5 504.76 523 537.96 580.5 604.36 580.5 637.56 523 604.36 465.5"/>
  <polygon class="cls-1" points="603.86 694.5 537.46 694.5 504.26 752 537.46 809.5 603.86 809.5 637.06 752 603.86 694.5"/>
  <polygon class="cls-1" points="603.86 809.5 537.46 809.5 504.26 867 537.46 924.5 603.86 924.5 637.06 867 603.86 809.5"/>
  <polygon class="cls-1" points="602.8 3.5 536.4 3.5 503.2 61 536.4 118.5 602.8 118.5 635.99 61 602.8 3.5"/>
  <polygon class="cls-1" points="703.55 176.5 637.15 176.5 603.95 234 637.15 291.5 703.55 291.5 736.74 234 703.55 176.5"/>
  <polygon class="cls-1" points="703.55 61.5 637.15 61.5 603.95 119 637.15 176.5 703.55 176.5 736.74 119 703.55 61.5"/>
  <polygon class="cls-1" points="703.55 521.5 637.15 521.5 603.95 579 637.15 636.5 703.55 636.5 736.74 579 703.55 521.5"/>
  <polygon class="cls-2" points="703.55 291.5 637.15 291.5 603.95 349 637.15 406.5 703.55 406.5 736.74 349 703.55 291.5"/>
  <polygon class="cls-1" points="703.55 406.5 637.15 406.5 603.95 464 637.15 521.5 703.55 521.5 736.74 464 703.55 406.5"/>
  <polygon class="cls-1" points="703.05 636.5 636.65 636.5 603.45 694 636.65 751.5 703.05 751.5 736.24 694 703.05 636.5"/>
  <polygon class="cls-1" points="703.05 751.5 636.65 751.5 603.45 809 636.65 866.5 703.05 866.5 736.24 809 703.05 751.5"/>
  <polygon class="cls-1" points="804.45 234.5 738.06 234.5 704.86 292 738.06 349.5 804.45 349.5 837.65 292 804.45 234.5"/>
  <polygon class="cls-1" points="804.45 119.5 738.06 119.5 704.86 177 738.06 234.5 804.45 234.5 837.65 177 804.45 119.5"/>
  <polygon class="cls-1" points="804.45 579.5 738.06 579.5 704.86 637 738.06 694.5 804.45 694.5 837.65 637 804.45 579.5"/>
  <polygon class="cls-2" points="804.45 349.5 738.06 349.5 704.86 407 738.06 464.5 804.45 464.5 837.65 407 804.45 349.5"/>
  <polygon class="cls-1" points="804.45 464.5 738.06 464.5 704.86 522 738.06 579.5 804.45 579.5 837.65 522 804.45 464.5"/>
  <polygon class="cls-1" points="803.95 694.5 737.56 694.5 704.36 752 737.56 809.5 803.95 809.5 837.15 752 803.95 694.5"/>
  <polygon class="cls-1" points="803.95 809.5 737.56 809.5 704.36 867 737.56 924.5 803.95 924.5 837.15 867 803.95 809.5"/>
  <polygon class="cls-1" points="802.89 3.5 736.5 3.5 703.3 61 736.5 118.5 802.89 118.5 836.09 61 802.89 3.5"/>
  <polygon class="cls-3" points="302.57 175.5 236.18 175.5 202.98 233 236.18 290.5 302.57 290.5 335.77 233 302.57 175.5"/>
  <polygon class="cls-4" points="402.48 348.5 336.08 348.5 302.89 406 336.08 463.5 402.48 463.5 435.68 406 402.48 348.5"/>
  <polygon class="cls-5" points="503.45 520.5 437.06 520.5 403.86 578 437.06 635.5 503.45 635.5 536.65 578 503.45 520.5"/>
</svg>
