<svg xmlns="http://www.w3.org/2000/svg" xmlns:xlink="http://www.w3.org/1999/xlink" viewBox="0 0 73 72" height="72" width="73"><defs><style>.cls-1{fill:url(#linear-gradient);}.cls-2{fill:url(#linear-gradient-2);}.cls-3{fill:#1f2833;}</style><linearGradient id="linear-gradient" x1="2" y1="47.73" x2="41.71" y2="47.73" gradientTransform="matrix(1, 0, 0, -1, 0, 74)" gradientUnits="userSpaceOnUse"><stop offset="0"/><stop offset="0.03" stop-color="#202020"/><stop offset="0.07" stop-color="#494949"/><stop offset="0.12" stop-color="#6f6f6f"/><stop offset="0.18" stop-color="#8f8f8f"/><stop offset="0.24" stop-color="#ababab"/><stop offset="0.31" stop-color="#c1c1c1"/><stop offset="0.38" stop-color="#d1d1d1"/><stop offset="0.48" stop-color="#ddd"/><stop offset="0.62" stop-color="#e4e4e4"/><stop offset="1" stop-color="#e6e6e6"/></linearGradient><linearGradient id="linear-gradient-2" x1="29" y1="38" x2="73" y2="38" gradientTransform="matrix(1, 0, 0, -1, 0, 74)" gradientUnits="userSpaceOnUse"><stop offset="0"/><stop offset="0.02" stop-color="#080808"/><stop offset="0.14" stop-color="#353535"/><stop offset="0.27" stop-color="#5c5c5c"/><stop offset="0.4" stop-color="#7b7b7b"/><stop offset="0.53" stop-color="#949494"/><stop offset="0.67" stop-color="#a5a5a5"/><stop offset="0.82" stop-color="#b0b0b0"/><stop offset="1" stop-color="#b3b3b3"/></linearGradient></defs><title>logo-af-dark</title><g id="Layer_2" data-name="Layer 2"><g id="Layer_1-2" data-name="Layer 1"><g id="Layer_2-2" data-name="Layer 2"><g id="Layer_2-2-2" data-name="Layer 2-2"><path class="cls-1" d="M28.84,47.42,27.39,41.6q-4.17,6.93-11.61,6.93a14.31,14.31,0,0,1-9.93-3.46Q2,41.61,2,35.32a10.93,10.93,0,0,1,2.22-6.79,11.81,11.81,0,0,1,6.12-4.11c3.39-1,8.59-1.3,15.66-1.42,0-4.07-.15-6.47-.52-6.71S23.63,14,22,14c-1,0-3.19-.12-5,0-2.9.12-5,.45-10,1-.48-3.33-1.31-4.78-1.55-8.6C8.65,5.73,12,5.16,15.51,4.69A74.5,74.5,0,0,1,24.94,4Q32.2,4,35.82,6.45a11.08,11.08,0,0,1,4.71,6.42,36.29,36.29,0,0,1,1,10.07l-.09,13.58.27,10.9ZM26,37.26V30.42h-.7q-6.71,0-7.43.74a2.89,2.89,0,0,0-.68,1.39A7.89,7.89,0,0,0,17,34.3a3.81,3.81,0,0,0,1,3.05,4.69,4.69,0,0,0,3.08.83A15,15,0,0,0,26,37.26Z"/><path class="cls-2" d="M62.41,20.21v1.11h9.51L71.53,32H62.08L63,72H56L47.11,31H29V23l18-1V19.47A48,48,0,0,1,48.13,9.12q1.08-4.93,2-5.92Q52.89,0,62,0A69.86,69.86,0,0,1,73,1c0,1-.11,3-.31,5.91s-.41,5.46-.59,7.52l-3.86-.13c-3.17,0-4.91.21-5.21.62C62.61,15.49,62.41,17.25,62.41,20.21Z"/></g><g id="Layer_1-2-2" data-name="Layer 1-2"><path class="cls-3" d="M26.84,47.42,25.39,41.6q-4.17,6.93-11.61,6.93a14.31,14.31,0,0,1-9.93-3.46Q0,41.61,0,35.32a10.93,10.93,0,0,1,2.22-6.79,11.81,11.81,0,0,1,6.12-4.11c3.39-1,8.59-1.3,15.66-1.42,0-4.07-.15-6.47-.52-6.71a6.23,6.23,0,0,0-2.9-.37q-1.53,0-4.26.18-4.35.2-11.79,1c-.48-3.33-.84-6.91-1.08-10.72C6.65,5.71,10,5.14,13.51,4.67A72.67,72.67,0,0,1,22.94,4q7.24,0,10.88,2.45a11.08,11.08,0,0,1,4.71,6.42,36.29,36.29,0,0,1,1,10.07l-.09,13.58.27,10.9ZM24,37.26V30.42h-.7q-6.71,0-7.43.74a2.89,2.89,0,0,0-.68,1.39A7.89,7.89,0,0,0,15,34.3a3.81,3.81,0,0,0,1,3.05,4.69,4.69,0,0,0,3.08.83A15,15,0,0,0,24,37.26Z"/><path class="cls-3" d="M60.41,20.21v1.11h9.51L69.53,32H60.08L61,72H46l-.89-41H27V23l18-1V19.47A48,48,0,0,1,46.13,9.12q1.08-4.93,2-5.92Q50.89,0,60,0A69.86,69.86,0,0,1,71,1c0,1-.11,3-.31,5.91s-.41,5.46-.59,7.52l-3.86-.13c-3.17,0-4.91.21-5.21.62C60.61,15.49,60.41,17.25,60.41,20.21Z"/></g></g></g></g></svg>