<svg xmlns="http://www.w3.org/2000/svg" xmlns:xlink="http://www.w3.org/1999/xlink" viewBox="0 0 73 72" height="72" width="73"><defs><style>.cls-1{fill:url(#linear-gradient);}.cls-2{fill:url(#White_Black);}.cls-3{fill:#fafafa;}</style><linearGradient id="linear-gradient" x1="2" y1="26.26" x2="41.71" y2="26.26" gradientUnits="userSpaceOnUse"><stop offset="0" stop-color="#fff"/><stop offset="0.06" stop-color="#ececec"/><stop offset="0.25" stop-color="#afafaf"/><stop offset="0.43" stop-color="#7d7d7d"/><stop offset="0.6" stop-color="#555"/><stop offset="0.76" stop-color="#393939"/><stop offset="0.9" stop-color="#282828"/><stop offset="1" stop-color="#222"/></linearGradient><linearGradient id="White_Black" x1="29" y1="36" x2="73" y2="36" gradientUnits="userSpaceOnUse"><stop offset="0" stop-color="#fff"/><stop offset="1"/></linearGradient></defs><title>logo-af-ko</title><g id="Layer_2" data-name="Layer 2"><g id="Layer_3" data-name="Layer 3"><path class="cls-1" d="M28.84,47.42,27.39,41.6q-4.17,6.93-11.61,6.93a14.29,14.29,0,0,1-9.93-3.46Q2,41.61,2,35.32a10.87,10.87,0,0,1,2.22-6.79,11.82,11.82,0,0,1,6.12-4.11c3.39-1,8.59-1.3,15.66-1.42,0-4.07-.15-6.47-.52-6.71S23.63,14,22,14c-1,0-3.19-.12-5,0-2.9.12-5,.45-10,1-.48-3.33-1.31-4.78-1.55-8.6q4.8-1,10.06-1.71A73.17,73.17,0,0,1,24.94,4q7.25,0,10.88,2.45a11.07,11.07,0,0,1,4.71,6.42,36.66,36.66,0,0,1,1,10.07l-.09,13.58.27,10.9ZM26,37.26V30.42H25.3q-6.71,0-7.43.74a2.88,2.88,0,0,0-.68,1.39A7.39,7.39,0,0,0,17,34.3a3.8,3.8,0,0,0,1,3.05,4.7,4.7,0,0,0,3.08.83A15,15,0,0,0,26,37.26Z"/><path class="cls-2" d="M62.41,20.21v1.11h9.51L71.53,32H62.08L63,72l-8-.1L47.11,31H29V23l18-1,0-2.53A48.23,48.23,0,0,1,48.13,9.12q1.08-4.93,2-5.92Q52.89,0,62,0A69.57,69.57,0,0,1,73,1c0,1-.11,3-.31,5.91s-.41,5.46-.59,7.52l-3.86-.13c-3.17,0-4.91.21-5.21.62C62.61,15.49,62.41,17.25,62.41,20.21Z"/><path class="cls-3" d="M26.84,47.42,25.39,41.6q-4.17,6.93-11.61,6.93a14.29,14.29,0,0,1-9.93-3.46Q0,41.61,0,35.32a10.87,10.87,0,0,1,2.22-6.79,11.82,11.82,0,0,1,6.12-4.11c3.39-1,8.59-1.3,15.66-1.42,0-4.07-.15-6.47-.52-6.71a6.19,6.19,0,0,0-2.9-.37q-1.54,0-4.26.18c-2.9.13-6.83.46-11.79,1q-.72-5-1.08-10.72,4.8-1,10.06-1.71A73.17,73.17,0,0,1,22.94,4q7.24,0,10.88,2.45a11.07,11.07,0,0,1,4.71,6.42,36.66,36.66,0,0,1,1,10.07l-.09,13.58.27,10.9ZM24,37.26V30.42H23.3q-6.71,0-7.43.74a2.88,2.88,0,0,0-.68,1.39A7.39,7.39,0,0,0,15,34.3a3.8,3.8,0,0,0,1,3.05,4.7,4.7,0,0,0,3.08.83A15,15,0,0,0,24,37.26Z"/><path class="cls-3" d="M60.41,20.21v1.11h9.51L69.53,32H60.08L61,72H46l-.89-41H27V23l18-1,0-2.53A48.23,48.23,0,0,1,46.13,9.12q1.08-4.93,2-5.92Q50.89,0,60,0A69.57,69.57,0,0,1,71,1c0,1-.11,3-.31,5.91s-.41,5.46-.59,7.52l-3.86-.13c-3.17,0-4.91.21-5.21.62C60.61,15.49,60.41,17.25,60.41,20.21Z"/></g></g></svg>