<svg width="95.101mm" height="95.101mm" version="1.1" viewBox="0 0 95.101 95.101" xmlns="http://www.w3.org/2000/svg">
 <g transform="translate(-45.349 -37.845)">
  <path d="m123.38 116.65c-6.2485 6.0922-3.7581 12.105-11.862 15.342s-10.442-2.8362-19.168-2.9466c-8.7262-0.11045-11.217 5.9019-19.236 2.4605-8.0197-3.4414-5.378-9.3889-11.47-15.637s-12.105-3.7581-15.342-11.862c-3.2373-8.1042 2.8362-10.442 2.9466-19.168 0.11046-8.7262-5.9019-11.217-2.4605-19.236 3.4414-8.0197 9.3889-5.378 15.637-11.47 6.2485-6.0922 3.7581-12.105 11.862-15.342 8.1042-3.2373 10.442 2.8362 19.168 2.9466 8.7262 0.11046 11.217-5.9019 19.236-2.4605 8.0197 3.4414 5.378 9.3889 11.47 15.637 6.0922 6.2485 12.105 3.7581 15.342 11.862 3.2373 8.1042-2.8362 10.442-2.9466 19.168-0.11046 8.7262 5.9019 11.217 2.4605 19.236-3.4414 8.0197-9.3889 5.378-15.637 11.47z" style="fill-opacity:.56275"/>
 </g>
</svg>
